<svg id="레이어_1" data-name="레이어 1" xmlns="http://www.w3.org/2000/svg" viewBox="0 0 145.49 70.62"><defs><style>.cls-1{fill:#ce0e2d;}.cls-2{fill:#ee7623;}</style></defs><title>logo</title><path class="cls-1" d="M13.28,51.83c-2.51-1.17-4.57-2.12-4.57-4,0-1.47,1.17-2.53,3.49-2.53a11.4,11.4,0,0,1,2.27.23,6.47,6.47,0,0,0,1.11.12c2,0,3.17-1.21,3.92-3.5l.32-.93a20.89,20.89,0,0,0-7.94-1.59c-6.87,0-10.49,4.4-10.49,9a7.71,7.71,0,0,0,1.86,5.28,16.5,16.5,0,0,0,5.46,3.75C11.54,59,14.09,60,14.09,62.06c0,1.82-1.88,2.86-4.4,2.86A13.78,13.78,0,0,1,2.83,62.7L0,68a19.62,19.62,0,0,0,10.16,2.6c6.41,0,11.25-3.67,11.25-9.32S16.92,53.6,13.28,51.83Z" transform="translate(0 0)"/><path class="cls-1" d="M49.94,40.22H41.66L32.4,52.5h-.14V40.22H25.44V70.38h.4c2.95,0,6.47-1.36,6.47-6.29V57.16h.13L41.89,70h8.68L38.32,54.46Z" transform="translate(0 0)"/><path class="cls-1" d="M50.33,7.89c-2.41.46-6,2.64-6,6.5,0,3.5,2.87,5.62,2.89,10.21a8.12,8.12,0,0,1-3.95,7.06c.83-.08,1.74-.13,2.75-.13a20.19,20.19,0,0,1,3.44.22L60.27,18.52A44.87,44.87,0,0,0,50.33,7.89Z" transform="translate(0 0)"/><path class="cls-1" d="M66.09,29.08c1,0,1.85.13,3.49.12a25.16,25.16,0,0,0,12.89-3.6,44.86,44.86,0,0,0-22.2-7.08c-.61,1.73-5.38,15-5.74,16.07a17.59,17.59,0,0,1,1.93,2.83,31.56,31.56,0,0,1,2.92,6.18c1.35-2.11,1.52-5.47,1.64-8.9C61.15,31.5,61.82,29.1,66.09,29.08Z" transform="translate(0 0)"/><path class="cls-2" d="M35.73,31.78c.07.63.34,1,.89,1,1.57,0,9.18-1.6,9.16-8.22,0-4.06-2.93-6.29-2.93-10.35,0-4.58,3.83-6.79,5.95-7.39C41.42,1.62,34.46,0,33.18,0a.79.79,0,0,0-.81.87c0,.36.14,1.36.2,1.9C33,6.5,35.66,31.16,35.73,31.78Z" transform="translate(0 0)"/><path class="cls-2" d="M89.68,32.68a.81.81,0,0,0,.45-.71.88.88,0,0,0-.12-.43,27.56,27.56,0,0,0-6.14-5.43,27.45,27.45,0,0,1-13.88,4c-1.62,0-2-.11-3.09-.1-3.22,0-4,1.39-4.15,4.22,0,.53,0,1.25,0,2-.11,2.52-.4,6-2.34,8.34a5.34,5.34,0,0,0,.33.73.74.74,0,0,0,.66.42,1.49,1.49,0,0,0,.6-.17C62.51,45.34,84.64,35,88,33.5,88.46,33.27,89.37,32.85,89.68,32.68Z" transform="translate(0 0)"/><path class="cls-2" d="M141.61,61.34c-1.39-.55-2.64-1-2.64-1.91,0-.75.7-1.23,1.83-1.23s1.76.39,2.58.39c1.14,0,1.49-1.21,1.63-1.69l.19-.56a11,11,0,0,0-4.36-.84c-3.35,0-5.27,1.7-5.27,4.11,0,2.57,1.92,3.46,3.63,4.15,1.18.47,2.77,1,2.77,2.07s-.93,1.55-2.37,1.55a6.75,6.75,0,0,1-3.74-1.25l-1.14,2.58A9.79,9.79,0,0,0,139.86,70c3,0,5.63-1.22,5.63-4.33C145.49,63.13,143.2,62,141.61,61.34Z" transform="translate(0 0)"/><path class="cls-2" d="M75.44,55.65a6.3,6.3,0,0,0-4.26,1.86A2.27,2.27,0,0,0,68.82,56a7.88,7.88,0,0,0-1.33.17,19.2,19.2,0,0,1,.4,4.35v9.43h3.54v-9.8a4.72,4.72,0,0,1,2.85-1.38c1.82,0,2.77,1.32,2.77,3v8.14h3.53v-9A4.87,4.87,0,0,0,75.44,55.65Z" transform="translate(0 0)"/><path class="cls-2" d="M89.05,55.7c-3.39,0-6.25,2.76-6.25,7.27s2.77,7.25,6.91,7.25a8.27,8.27,0,0,0,5.21-1.58L94.51,68a1.75,1.75,0,0,0-1.57-1c-1.17,0-1.32.48-2.9.48a3.56,3.56,0,0,1-3.71-3.53H95.4v-1C95.4,58.55,92.91,55.7,89.05,55.7Zm-2.73,5.72a2.73,2.73,0,1,1,5.41,0Z" transform="translate(0 0)"/><path class="cls-2" d="M124.08,66V51.52a2.73,2.73,0,0,0-2.79-2.9h-.75V67.41a2.64,2.64,0,0,0,2.93,2.81c2.29,0,3-1.64,3-3.18a2.55,2.55,0,0,1-1.07.25A1.18,1.18,0,0,1,124.08,66Z" transform="translate(0 0)"/><path class="cls-2" d="M115.48,49.53a2.14,2.14,0,1,0,2.2,2.13A2.17,2.17,0,0,0,115.48,49.53Z" transform="translate(0 0)"/><rect class="cls-2" x="113.71" y="55.96" width="3.54" height="13.95"/><path class="cls-2" d="M130.28,49.7a2.14,2.14,0,1,0,2.19,2.13A2.17,2.17,0,0,0,130.28,49.7Z" transform="translate(0 0)"/><rect class="cls-2" x="128.5" y="56.13" width="3.54" height="13.95"/><path class="cls-2" d="M106.58,63.37l.86-2.53,3.69-5h-3.49l-3.46,4.33L101.67,57a3,3,0,0,0-.75-.94l-.2-.24h-.18A3.18,3.18,0,0,0,99,55.5a6.58,6.58,0,0,0-1.79.26.16.16,0,0,1,0,.06h-.07l.2.28,4.89,6.59-1.07,1.42L96.78,70h3.69l2.2-2.86,1.51-1.94,3.31,4.2.47.6h3.63l-2.87-3.8Z" transform="translate(0 0)"/></svg>